<svg id="Laag_1" xmlns="http://www.w3.org/2000/svg" width="283.5" height="283.5" viewBox="0 0 283.5 283.5"><style>.st0{fill:#fff}.st1{fill:#003c79}.st2{enable-background:new}.st3{fill:#e51b26}</style><title>StedennetwerkG40-RGB_vierkant</title><path class="st0" d="M0 0h283.5v283.5H0z"/><path class="st1" d="M98.6 136.1c-7.1-3.3-16.4-4.9-23.8-4.9-21.5 0-33.4 14.5-33.4 33.4 0 18.7 11.6 32.9 31.3 32.9 4.1.1 8.1-.4 12.1-1.3v-24H65.3v-14.5h37.2v49.6c-9.8 2.6-19.9 4.8-29.8 4.8-29.8 0-50.6-14.9-50.6-46.1 0-31.6 19.3-49.3 50.6-49.3 9.2-.1 18.3 1.2 27.1 3.8l-1.2 15.6z"/><g class="st2"><path class="st3" d="M149.3 118.2h24.3v60.1h11.8v14.6h-11.8v18.4H155v-18.4h-40.8v-16.1l35.1-58.6zm5.8 60.1v-41.4l-19.5 34.7-4 6.5 6.9.1h16.6z"/></g><g class="st2"><path class="st3" d="M227.7 117.1c9.1 0 16.3 2.4 21.4 7.3 8.1 7.6 12.1 21.1 12.1 40.3 0 19.2-4 32.6-12 40.2-5.2 5-12.4 7.4-21.5 7.4s-16.3-2.4-21.4-7.3c-8.1-7.6-12.1-21.1-12.1-40.3 0-19.2 4-32.6 12-40.2 5.2-4.9 12.3-7.4 21.5-7.4zm0 14.6c-5.9 0-9.9 3.9-12.1 11.6-1.4 5-2.1 12.1-2.1 21.4 0 9.5.7 16.6 2 21.3 2.2 7.8 6.3 11.7 12.2 11.7 5.9 0 9.9-3.9 12.1-11.6 1.4-5 2.1-12.1 2.1-21.4 0-9.5-.7-16.6-2-21.3-2.2-7.8-6.3-11.7-12.2-11.7z"/></g><path class="st1" d="M44.1 77c-1.5-.6-3.2-1-4.8-1-1.6 0-3.7.7-3.7 3.3 0 4.1 10.3 2.4 10.3 10.2 0 5.2-4.1 7.1-8.8 7.1-2 0-4.1-.3-6-.9l.4-4.2c1.6.9 3.4 1.4 5.3 1.4 1.8 0 4.2-.9 4.2-3 0-4.5-10.3-2.6-10.3-10.4 0-5.3 4.1-7.2 8.2-7.2 1.9 0 3.8.3 5.6.8l-.4 3.9zm7.2 5.1H48v-3.3h3.3v-3.5l4.5-1.4v4.9h4v3.3h-4v8.1c0 1.5.4 2.9 2.1 2.9.7 0 1.5-.2 2.1-.5l.1 3.6c-1.1.3-2.2.4-3.3.4-3.5 0-5.5-2.2-5.5-5.6v-8.9zm25.5 13.1c-1.8 1-3.9 1.5-6 1.4-5.7 0-9.1-3.3-9.1-9 0-5 2.7-9.2 8-9.2 6.4 0 8.2 4.4 8.2 10.5h-12c.1 2.5 2.2 4.5 4.7 4.4h.2c2-.1 4-.7 5.8-1.7v3.6h.2zm-3-9.4c-.1-2.2-1.1-4.1-3.7-4.1s-3.8 1.8-4 4.1h7.7zm19.4 8.4c-1.3 1.6-3.3 2.5-5.4 2.4-5.3 0-7.3-4.4-7.3-9.1s2-9 7.3-9c2-.1 3.9.8 5.2 2.4V71h4.5v25.2h-4.4l.1-2zM89 93.1c3 0 4-3.2 4-5.6S91.9 82 89 82s-3.7 3.2-3.7 5.5.8 5.6 3.7 5.6m27.1 2.1c-1.8 1-3.9 1.5-6 1.4-5.7 0-9.1-3.3-9.1-9 0-5 2.7-9.2 8-9.2 6.4 0 8.2 4.4 8.2 10.5h-12c.1 2.5 2.2 4.5 4.7 4.4h.2c2-.1 4-.7 5.8-1.7v3.6h.2zm-3-9.4c-.1-2.2-1.1-4.1-3.7-4.1s-3.8 1.8-4 4.1h7.7zm7.8-7h4.3v2.4h.1c1.3-1.9 3.4-2.9 5.7-2.8 4.1 0 5.9 2.9 5.9 6.8v10.9h-4.5v-9.3c0-2.1 0-5-2.9-5-3.3 0-4 3.5-4 5.8v8.5H121l-.1-17.3z"/><path class="st3" d="M141.8 83c0-1.3 0-2.7-.1-4h2.1v3.1h.1c.9-2.3 3.2-3.7 5.6-3.5 4.2 0 5.9 2.8 5.9 6.6v11h-2.1V85.7c0-3.2-1.1-5.3-4.1-5.3-3.9 0-5.1 3.4-5.1 6.3v9.5H142V83h-.2zM172 95.6c-1.6.6-3.3.9-5 .9-5.7 0-7.8-3.8-7.8-9s2.9-9 7.2-9c4.8 0 6.8 3.9 6.8 8.5v1.1h-11.7c0 3.6 2 6.6 5.7 6.6 1.7 0 3.3-.5 4.8-1.3v2.2zm-1-9.2c0-3-1.2-6-4.4-6s-5 3.1-5 6h9.4zm13.8-5.6h-3.9v11.1c0 1.5.6 2.8 2.3 2.8.7 0 1.4-.2 2-.4l.1 1.8c-.8.3-1.7.5-2.6.5-3.8 0-3.9-2.6-3.9-5.7v-10h-3.4V79h3.4v-4.1l2.1-.7V79h3.9v1.8zm21.4 15.4h-2.5L199 81.3h-.1l-4.7 14.9h-2.5L186.1 79h2.4l4.5 14.8 4.8-14.8h2.6l4.5 14.8h.1l4.7-14.8h2.2zm20.1-.6c-1.6.6-3.3.9-5 .9-5.7 0-7.8-3.8-7.8-9s2.9-9 7.2-9c4.8 0 6.8 3.9 6.8 8.5v1.1h-11.7c0 3.6 2 6.6 5.7 6.6 1.7 0 3.3-.5 4.8-1.3v2.2zm-1.1-9.2c0-3-1.2-6-4.4-6s-5 3.1-5 6h9.4zm6.4-3.6c0-1.9 0-2.6-.1-3.8h2.1v3.3h.1c.8-1.9 2.2-3.7 4.4-3.7.5 0 1 .1 1.5.2V81c-.5-.1-1-.2-1.5-.2-3.4 0-4.3 3.8-4.3 6.9v8.5h-2.1l-.1-13.4zm11.2-11.9h2.1V86l7.7-7h2.7l-8.4 7.6 9.4 9.6h-2.9l-8.5-8.9v8.9h-2.1z"/></svg>